<?xml version="1.0" standalone="no"?>
<!DOCTYPE svg PUBLIC "-//W3C//DTD SVG 20010904//EN"
 "http://www.w3.org/TR/2001/REC-SVG-20010904/DTD/svg10.dtd">
<svg version="1.0" xmlns="http://www.w3.org/2000/svg"
 width="16.000000pt" height="16.000000pt" viewBox="0 0 16.000000 16.000000"
 preserveAspectRatio="xMidYMid meet">
<metadata>
Created by potrace 1.11, written by Peter Selinger 2001-2013
</metadata>
<g transform="translate(0.000000,16.000000) scale(0.006154,-0.006154)"
fill="#000000" stroke="none">
<path d="M1357 2090 c-93 -5 -175 -11 -183 -14 -12 -5 -14 -114 -14 -775 l0
-771 28 -7 c15 -4 153 -7 307 -7 311 -1 345 4 480 68 256 121 378 335 392 682
11 287 -50 490 -191 634 -161 164 -368 212 -819 190z m439 -291 c190 -71 278
-274 252 -582 -19 -226 -111 -365 -277 -417 -48 -15 -91 -20 -182 -20 l-119 0
0 520 0 519 58 4 c95 7 213 -4 268 -24z"/>
<path d="M580 1505 c0 -584 -3 -641 -41 -689 -28 -36 -86 -50 -152 -36 -28 6
-59 12 -67 13 -20 3 -85 -234 -67 -245 19 -11 135 -36 207 -43 209 -22 365 91
409 293 7 36 11 247 11 662 l0 610 -150 0 -150 0 0 -565z"/>
</g>
</svg>
